<svg xmlns="http://www.w3.org/2000/svg" viewBox="0 0 64 64" width="64" height="64">
  <!-- Fire & Feast: Flame rising from a pan/wok -->
  <!-- Pan/wok base -->
  <path d="M14 42 Q14 50 32 50 Q50 50 50 42 L48 38 Q48 36 32 36 Q16 36 16 38 Z" fill="#5c2a1a" opacity="0.8"/>
  <ellipse cx="32" cy="36" rx="16" ry="4" fill="#7a3d2a"/>
  <!-- Pan handle -->
  <rect x="48" y="37" width="10" height="3" rx="1.5" fill="#4a3520"/>
  <!-- Flame - layered for depth -->
  <!-- Outer flame (orange/red) -->
  <path d="M24 34 Q22 26 26 20 Q28 16 30 18 Q28 22 30 24 Q32 20 34 14 Q38 20 36 26 Q38 22 40 20 Q42 26 40 34 Q36 36 32 36 Q28 36 24 34Z" fill="#e8a87c" opacity="0.8"/>
  <!-- Inner flame (bright yellow) -->
  <path d="M28 34 Q26 28 29 22 Q30 20 32 22 Q31 26 33 24 Q34 20 36 24 Q38 28 36 34 Q34 36 32 36 Q30 36 28 34Z" fill="#f0d060" opacity="0.85"/>
  <!-- Core flame (white-hot) -->
  <path d="M30 34 Q29 30 31 26 Q32 28 33 26 Q35 30 34 34 Q33 35 32 35 Q31 35 30 34Z" fill="#faf5e8" opacity="0.7"/>
  <!-- Small sparks -->
  <circle cx="26" cy="18" r="0.8" fill="#e8a87c" opacity="0.5"/>
  <circle cx="38" cy="16" r="0.6" fill="#f0d060" opacity="0.4"/>
</svg>
