<svg xmlns="http://www.w3.org/2000/svg" viewBox="0 0 128 128" width="128" height="128">
  <!-- Pineapple Bun A - crust barely extends, soft rounded edges -->
  <!-- Base bun body -->
  <path d="M26 60 Q26 44 64 44 Q102 44 102 60 L100 80 Q96 96 64 96 Q32 96 28 80 Z" fill="#e8a950"/>
  <ellipse cx="64" cy="94" rx="34" ry="4" fill="#c4863a" opacity="0.3"/>
  <!-- Crust - extends ~2px beyond bun, very soft/rounded edges -->
  <path d="M24 58 Q24 30 64 30 Q104 30 104 58 Q104 66 64 68 Q24 66 24 58Z" fill="#f0c060" stroke="#e8b840" stroke-width="0.5" stroke-linejoin="round"/>
  <!-- Crosshatch -->
  <g stroke="#d4a040" stroke-width="1.3" fill="none" opacity="0.65">
    <line x1="32" y1="44" x2="48" y2="64"/>
    <line x1="44" y1="36" x2="60" y2="62"/>
    <line x1="56" y1="32" x2="74" y2="62"/>
    <line x1="68" y1="32" x2="86" y2="58"/>
    <line x1="80" y1="36" x2="96" y2="54"/>
    <line x1="96" y1="44" x2="80" y2="64"/>
    <line x1="84" y1="36" x2="68" y2="62"/>
    <line x1="72" y1="32" x2="54" y2="62"/>
    <line x1="60" y1="32" x2="42" y2="58"/>
    <line x1="46" y1="36" x2="30" y2="54"/>
  </g>
  <!-- Face below crust -->
  <circle cx="48" cy="78" r="4" fill="#4a3520"/>
  <circle cx="80" cy="78" r="4" fill="#4a3520"/>
  <circle cx="46" cy="76" r="1.5" fill="#fff"/>
  <circle cx="78" cy="76" r="1.5" fill="#fff"/>
  <path d="M54 88 Q64 94 74 88" stroke="#4a3520" stroke-width="2.5" fill="none" stroke-linecap="round"/>
  <ellipse cx="40" cy="84" rx="5" ry="3.5" fill="#f0a0a0" opacity="0.45"/>
  <ellipse cx="88" cy="84" rx="5" ry="3.5" fill="#f0a0a0" opacity="0.45"/>
</svg>
